<svg width="18" height="18" viewBox="0 0 18 18" fill="none" xmlns="http://www.w3.org/2000/svg">
<path d="M1.7325 8.4315C1.70493 8.32096 1.7029 8.2056 1.72657 8.09416C1.75025 7.98272 1.79899 7.87814 1.86911 7.78836C1.93924 7.69857 2.02889 7.62594 2.13127 7.57598C2.23366 7.52602 2.34607 7.50003 2.46 7.5H15.54C15.6539 7.50003 15.7663 7.52602 15.8687 7.57598C15.9711 7.62594 16.0608 7.69857 16.1309 7.78836C16.201 7.87814 16.2498 7.98272 16.2734 8.09416C16.2971 8.2056 16.2951 8.32096 16.2675 8.4315L14.9092 13.8637C14.8281 14.1883 14.6409 14.4763 14.3773 14.6822C14.1136 14.8881 13.7887 14.9999 13.4542 15H4.54575C4.21125 14.9999 3.88638 14.8881 3.62275 14.6822C3.35912 14.4763 3.17186 14.1883 3.09075 13.8637L1.7325 8.43225V8.4315Z" stroke="white" stroke-width="2" stroke-linejoin="round"/>
<path d="M6.75 10.5V12" stroke="white" stroke-width="2" stroke-linecap="round"/>
<path d="M11.25 10.5V12" stroke="white" stroke-width="2" stroke-linecap="round"/>
<path d="M4.5 7.5L7.5 3" stroke="white" stroke-width="2" stroke-linecap="round"/>
<path d="M13.5 7.5L10.5 3" stroke="white" stroke-width="2" stroke-linecap="round"/>
</svg>
