<svg width="18" height="18" viewBox="0 0 18 18" fill="none" xmlns="http://www.w3.org/2000/svg">
<path d="M3 4.5H15L13.815 15.165C13.7744 15.532 13.5998 15.8712 13.3247 16.1175C13.0496 16.3638 12.6933 16.5 12.324 16.5H5.676C5.30673 16.5 4.95042 16.3638 4.67531 16.1175C4.4002 15.8712 4.22562 15.532 4.185 15.165L3 4.5Z" stroke="white" stroke-width="1.5" stroke-linecap="round" stroke-linejoin="round"/>
<path d="M5.50875 2.36025C5.63006 2.10298 5.82203 1.8855 6.06225 1.73318C6.30248 1.58087 6.58106 1.5 6.8655 1.5H11.1345C11.4191 1.49985 11.6978 1.58066 11.9382 1.73298C12.1785 1.88531 12.3706 2.10286 12.492 2.36025L13.5 4.5H4.5L5.50875 2.36025Z" stroke="white" stroke-width="1.5" stroke-linecap="round" stroke-linejoin="round"/>
<path d="M1.5 4.5H16.5" stroke="white" stroke-width="1.5" stroke-linecap="round" stroke-linejoin="round"/>
<path d="M7.5 8.25V12" stroke="white" stroke-width="1.5" stroke-linecap="round" stroke-linejoin="round"/>
<path d="M10.5 8.25V12" stroke="white" stroke-width="1.5" stroke-linecap="round" stroke-linejoin="round"/>
</svg>
