<svg width="24" height="24" viewBox="0 0 24 24" fill="none" xmlns="http://www.w3.org/2000/svg">
<path d="M12 21C11.355 20.428 10.626 19.833 9.85501 19.2H9.84501C7.13001 16.98 4.05301 14.468 2.69401 11.458C2.24801 10.5 2.01101 9.45802 2.00001 8.40002C1.99853 7.68201 2.14052 6.97093 2.41765 6.30855C2.69478 5.64616 3.10147 5.04583 3.61382 4.54279C4.12617 4.03975 4.73387 3.64416 5.40122 3.37922C6.06858 3.11429 6.78214 2.98537 7.50001 3.00002C8.68064 3.00189 9.83585 3.34311 10.828 3.98302C11.264 4.26599 11.6584 4.60828 12 5.00002C12.344 4.61002 12.738 4.26802 13.173 3.98302C14.1647 3.34298 15.3197 3.00174 16.5 3.00002C17.2179 2.98537 17.9314 3.11429 18.5988 3.37922C19.2662 3.64416 19.8739 4.03975 20.3862 4.54279C20.8986 5.04583 21.3052 5.64616 21.5824 6.30855C21.8595 6.97093 22.0015 7.68201 22 8.40002C21.9898 9.45884 21.7532 10.5032 21.306 11.463C19.947 14.473 16.871 16.984 14.156 19.2L14.146 19.208C13.374 19.837 12.646 20.432 12.001 21.008L12 21ZM7.50001 5.00002C6.56852 4.98837 5.67008 5.34487 5.00001 5.99202C4.68047 6.3059 4.42728 6.68081 4.25549 7.09448C4.0837 7.50814 3.99682 7.95212 4.00001 8.40002C4.01101 9.17002 4.18601 9.93002 4.51201 10.628C5.15354 11.9267 6.01914 13.1021 7.06901 14.1C8.06001 15.1 9.20001 16.068 10.186 16.882C10.459 17.107 10.737 17.334 11.015 17.561L11.19 17.704C11.457 17.922 11.733 18.148 12 18.37L12.013 18.358L12.019 18.353H12.025L12.034 18.346H12.044L12.062 18.331L12.103 18.298L12.11 18.292L12.121 18.284H12.127L12.136 18.276L12.8 17.731L12.974 17.588C13.255 17.359 13.533 17.132 13.806 16.907C14.792 16.093 15.933 15.126 16.924 14.121C17.9741 13.1236 18.8397 11.9486 19.481 10.65C19.813 9.94602 19.991 9.17802 20.001 8.40002C20.0029 7.9534 19.9154 7.51092 19.7434 7.09871C19.5715 6.6865 19.3187 6.31291 19 6.00002C18.3312 5.34994 17.4326 4.99051 16.5 5.00002C15.9373 4.99524 15.38 5.10958 14.8647 5.33554C14.3494 5.56149 13.8877 5.89393 13.51 6.31102L12 8.05102L10.49 6.31102C10.1123 5.89393 9.65064 5.56149 9.13531 5.33554C8.61999 5.10958 8.06268 4.99524 7.50001 5.00002Z" fill="#101010"/>
</svg>
