<svg width="18" height="18" viewBox="0 0 18 18" fill="none" xmlns="http://www.w3.org/2000/svg">
<g clip-path="url(#clip0_106_596)">
<path d="M1.7325 8.4315C1.70493 8.32096 1.7029 8.2056 1.72657 8.09416C1.75025 7.98272 1.79899 7.87814 1.86911 7.78836C1.93924 7.69857 2.02889 7.62594 2.13127 7.57598C2.23366 7.52602 2.34607 7.50003 2.46 7.5H15.54C15.6539 7.50003 15.7663 7.52602 15.8687 7.57598C15.9711 7.62594 16.0608 7.69857 16.1309 7.78836C16.201 7.87814 16.2498 7.98272 16.2734 8.09416C16.2971 8.2056 16.2951 8.32096 16.2675 8.4315L14.9092 13.8637C14.8281 14.1883 14.6409 14.4763 14.3773 14.6822C14.1136 14.8881 13.7887 14.9999 13.4542 15H4.54575C4.21125 14.9999 3.88638 14.8881 3.62275 14.6822C3.35912 14.4763 3.17186 14.1883 3.09075 13.8637L1.7325 8.43225V8.4315Z" stroke="white" stroke-width="2" stroke-linejoin="round"/>
<path d="M6.75 10.5V12" stroke="white" stroke-width="2" stroke-linecap="round"/>
<path d="M11.25 10.5V12" stroke="white" stroke-width="2" stroke-linecap="round"/>
<path d="M4.5 7.5L7.5 3" stroke="white" stroke-width="2" stroke-linecap="round"/>
<path d="M13.5 7.5L10.5 3" stroke="white" stroke-width="2" stroke-linecap="round"/>
<path d="M14.549 11.0003C12.5806 10.9737 10.9737 12.5806 11.0003 14.549C11.0266 16.4367 12.5636 17.9738 14.4514 18C16.42 18.0269 18.0266 16.42 17.9997 14.4517C17.9738 12.5636 16.4367 11.0266 14.549 11.0003ZM16.0624 13.6005L14.1799 15.7542C14.1557 15.782 14.126 15.8045 14.0927 15.8204C14.0593 15.8362 14.0231 15.845 13.9863 15.8463H13.9772C13.9418 15.8463 13.9068 15.8393 13.8741 15.8258C13.8414 15.8122 13.8117 15.7924 13.7867 15.7673L12.9801 14.9597C12.9296 14.9092 12.9013 14.8407 12.9013 14.7693C12.9013 14.6979 12.9297 14.6294 12.9802 14.5789C13.0307 14.5284 13.0992 14.5001 13.1707 14.5001C13.2421 14.5002 13.3105 14.5286 13.361 14.5791L13.8624 15.081C13.8755 15.094 13.891 15.1043 13.9082 15.111C13.9253 15.1178 14.4687 15.121 14.4871 15.1204C14.5055 15.1198 13.9986 15.1154 14.0153 15.1075C14.032 15.0996 14.0468 15.0883 14.059 15.0744L15.6574 13.2461C15.7044 13.1923 15.7709 13.1594 15.8421 13.1546C15.9134 13.1498 15.9836 13.1735 16.0374 13.2205C16.0912 13.2675 16.1241 13.334 16.1289 13.4052C16.1336 13.4765 16.1094 13.5467 16.0624 13.6005Z" fill="#49DC31"/>
</g>
<defs>
<clipPath id="clip0_106_596">
<rect width="18" height="18" fill="white"/>
</clipPath>
</defs>
</svg>
