<svg width="91" height="47" viewBox="0 0 91 47" fill="none" xmlns="http://www.w3.org/2000/svg">
<path d="M6.57422 18.3281C4.62109 18.3281 3.04688 17.8125 1.85156 16.7812C0.65625 15.7422 0.0585938 14.332 0.0585938 12.5508H3.71484C3.71484 13.3242 3.98828 13.9219 4.53516 14.3438C5.08203 14.7578 5.75391 14.9648 6.55078 14.9648C7.27734 14.9648 7.91016 14.7852 8.44922 14.4258C8.98828 14.0664 9.25781 13.5859 9.25781 12.9844C9.25781 12.7734 9.21875 12.582 9.14062 12.4102C9.07031 12.2383 8.94531 12.0859 8.76562 11.9531C8.59375 11.8203 8.42578 11.707 8.26172 11.6133C8.10547 11.5195 7.87109 11.4258 7.55859 11.332C7.24609 11.2383 6.98828 11.168 6.78516 11.1211C6.58984 11.0664 6.29297 10.9922 5.89453 10.8984C4.48828 10.5547 3.47266 10.2305 2.84766 9.92578C1.36328 9.21484 0.527344 8.12109 0.339844 6.64453C0.308594 6.41016 0.292969 6.16797 0.292969 5.91797C0.292969 4.32422 0.835938 3.08984 1.92188 2.21484C3.01562 1.33203 4.50391 0.890625 6.38672 0.890625C8.30859 0.890625 9.79688 1.37109 10.8516 2.33203C11.9141 3.28516 12.4453 4.60547 12.4453 6.29297H8.84766C8.84766 5.60547 8.60156 5.08203 8.10938 4.72266C7.625 4.35547 7.01953 4.17188 6.29297 4.17188C5.64453 4.17188 5.08594 4.30859 4.61719 4.58203C4.15625 4.85547 3.92578 5.25 3.92578 5.76562C3.92578 5.99219 3.98438 6.19922 4.10156 6.38672C4.22656 6.57422 4.37109 6.72656 4.53516 6.84375C4.69922 6.96094 4.94531 7.08203 5.27344 7.20703C5.60156 7.32422 5.88281 7.41406 6.11719 7.47656C6.35938 7.53906 6.70703 7.625 7.16016 7.73438C7.54297 7.82812 7.83594 7.90234 8.03906 7.95703C8.25 8.01172 8.54297 8.09766 8.91797 8.21484C9.29297 8.33203 9.58984 8.44141 9.80859 8.54297C10.0273 8.63672 10.2969 8.76953 10.6172 8.94141C10.9375 9.10547 11.1914 9.27344 11.3789 9.44531C11.5742 9.60938 11.7812 9.81641 12 10.0664C12.2266 10.3164 12.3984 10.5781 12.5156 10.8516C12.6328 11.125 12.7305 11.4414 12.8086 11.8008C12.8945 12.1602 12.9375 12.543 12.9375 12.9492C12.9375 13.832 12.7695 14.6211 12.4336 15.3164C12.0977 16.0117 11.6367 16.5781 11.0508 17.0156C10.4727 17.4453 9.80078 17.7734 9.03516 18C8.27734 18.2188 7.45703 18.3281 6.57422 18.3281ZM22.9922 4.73438C24.4609 4.73438 25.6289 5.22656 26.4961 6.21094C27.3633 7.1875 27.7969 8.5 27.7969 10.1484V18H24.293V10.7109C24.293 8.77344 23.5391 7.80469 22.0312 7.80469C21.1328 7.80469 20.4219 8.10938 19.8984 8.71875C19.3828 9.32031 19.125 10.1445 19.125 11.1914V18H15.6211V5.03906H18.0234L18.7031 6.64453C19.2031 6.05078 19.8242 5.58594 20.5664 5.25C21.3164 4.90625 22.125 4.73438 22.9922 4.73438ZM37.1484 18.3633C35.8281 18.3633 34.6328 18.0664 33.5625 17.4727C32.4922 16.8789 31.6523 16.0586 31.043 15.0117C30.4414 13.9648 30.1406 12.8008 30.1406 11.5195C30.1406 10.2227 30.4414 9.05469 31.043 8.01562C31.6523 6.96875 32.4922 6.15234 33.5625 5.56641C34.6328 4.97266 35.8281 4.67578 37.1484 4.67578C38.4609 4.67578 39.6523 4.97266 40.7227 5.56641C41.793 6.15234 42.6328 6.96875 43.2422 8.01562C43.8516 9.0625 44.1562 10.2305 44.1562 11.5195C44.1562 12.8008 43.8516 13.9648 43.2422 15.0117C42.6328 16.0586 41.793 16.8789 40.7227 17.4727C39.6523 18.0664 38.4609 18.3633 37.1484 18.3633ZM34.6641 14.0859C35.3125 14.7422 36.1406 15.0703 37.1484 15.0703C38.1562 15.0703 38.9844 14.7422 39.6328 14.0859C40.2812 13.4219 40.6055 12.5664 40.6055 11.5195C40.6055 10.4727 40.2812 9.62109 39.6328 8.96484C38.9844 8.30078 38.1562 7.96875 37.1484 7.96875C36.1406 7.96875 35.3125 8.30078 34.6641 8.96484C34.0156 9.62109 33.6914 10.4727 33.6914 11.5195C33.6914 12.5664 34.0156 13.4219 34.6641 14.0859ZM52.8281 18.3633C51.5078 18.3633 50.3125 18.0664 49.2422 17.4727C48.1719 16.8789 47.332 16.0586 46.7227 15.0117C46.1211 13.9648 45.8203 12.8008 45.8203 11.5195C45.8203 10.2227 46.1211 9.05469 46.7227 8.01562C47.332 6.96875 48.1719 6.15234 49.2422 5.56641C50.3125 4.97266 51.5078 4.67578 52.8281 4.67578C54.1406 4.67578 55.332 4.97266 56.4023 5.56641C57.4727 6.15234 58.3125 6.96875 58.9219 8.01562C59.5312 9.0625 59.8359 10.2305 59.8359 11.5195C59.8359 12.8008 59.5312 13.9648 58.9219 15.0117C58.3125 16.0586 57.4727 16.8789 56.4023 17.4727C55.332 18.0664 54.1406 18.3633 52.8281 18.3633ZM50.3438 14.0859C50.9922 14.7422 51.8203 15.0703 52.8281 15.0703C53.8359 15.0703 54.6641 14.7422 55.3125 14.0859C55.9609 13.4219 56.2852 12.5664 56.2852 11.5195C56.2852 10.4727 55.9609 9.62109 55.3125 8.96484C54.6641 8.30078 53.8359 7.96875 52.8281 7.96875C51.8203 7.96875 50.9922 8.30078 50.3438 8.96484C49.6953 9.62109 49.3711 10.4727 49.3711 11.5195C49.3711 12.5664 49.6953 13.4219 50.3438 14.0859ZM69.4219 4.67578C70.7031 4.67578 71.8594 4.97266 72.8906 5.56641C73.9297 6.15234 74.7422 6.96875 75.3281 8.01562C75.9141 9.0625 76.207 10.2305 76.207 11.5195C76.207 12.8086 75.9141 13.9805 75.3281 15.0352C74.7422 16.082 73.9297 16.9023 72.8906 17.4961C71.8594 18.0898 70.7031 18.3867 69.4219 18.3867C68.1094 18.3867 66.9219 18.0234 65.8594 17.2969V22.6758H62.3555V5.03906H64.6641L65.2617 6.22266C66.4258 5.19141 67.8125 4.67578 69.4219 4.67578ZM66.5977 14.0625C67.2695 14.7344 68.1133 15.0703 69.1289 15.0703C70.1445 15.0703 70.9844 14.7344 71.6484 14.0625C72.3203 13.3906 72.6562 12.543 72.6562 11.5195C72.6562 10.4961 72.3203 9.64844 71.6484 8.97656C70.9844 8.30469 70.1445 7.96875 69.1289 7.96875C68.1133 7.96875 67.2695 8.30859 66.5977 8.98828C65.9336 9.66016 65.6016 10.5039 65.6016 11.5195C65.6016 12.5352 65.9336 13.3828 66.5977 14.0625ZM87.1289 5.03906H90.8555L85.207 17.8242C84.668 19.043 84.1406 19.9883 83.625 20.6602C83.1172 21.3398 82.5234 21.8438 81.8438 22.1719C81.1641 22.5078 80.3398 22.6758 79.3711 22.6758H77.9297V19.5234H79.1484C79.9766 19.5234 80.5664 19.3711 80.918 19.0664C81.2773 18.7617 81.6602 18.1094 82.0664 17.1094L82.1133 17.0039L76.6289 5.03906H80.4375L83.8945 13.0078L87.1289 5.03906ZM19.9453 46.3281C17.9922 46.3281 16.418 45.8125 15.2227 44.7812C14.0273 43.7422 13.4297 42.332 13.4297 40.5508H17.0859C17.0859 41.3242 17.3594 41.9219 17.9062 42.3438C18.4531 42.7578 19.125 42.9648 19.9219 42.9648C20.6484 42.9648 21.2812 42.7852 21.8203 42.4258C22.3594 42.0664 22.6289 41.5859 22.6289 40.9844C22.6289 40.7734 22.5898 40.582 22.5117 40.4102C22.4414 40.2383 22.3164 40.0859 22.1367 39.9531C21.9648 39.8203 21.7969 39.707 21.6328 39.6133C21.4766 39.5195 21.2422 39.4258 20.9297 39.332C20.6172 39.2383 20.3594 39.168 20.1562 39.1211C19.9609 39.0664 19.6641 38.9922 19.2656 38.8984C17.8594 38.5547 16.8438 38.2305 16.2188 37.9258C14.7344 37.2148 13.8984 36.1211 13.7109 34.6445C13.6797 34.4102 13.6641 34.168 13.6641 33.918C13.6641 32.3242 14.207 31.0898 15.293 30.2148C16.3867 29.332 17.875 28.8906 19.7578 28.8906C21.6797 28.8906 23.168 29.3711 24.2227 30.332C25.2852 31.2852 25.8164 32.6055 25.8164 34.293H22.2188C22.2188 33.6055 21.9727 33.082 21.4805 32.7227C20.9961 32.3555 20.3906 32.1719 19.6641 32.1719C19.0156 32.1719 18.457 32.3086 17.9883 32.582C17.5273 32.8555 17.2969 33.25 17.2969 33.7656C17.2969 33.9922 17.3555 34.1992 17.4727 34.3867C17.5977 34.5742 17.7422 34.7266 17.9062 34.8438C18.0703 34.9609 18.3164 35.082 18.6445 35.207C18.9727 35.3242 19.2539 35.4141 19.4883 35.4766C19.7305 35.5391 20.0781 35.625 20.5312 35.7344C20.9141 35.8281 21.207 35.9023 21.4102 35.957C21.6211 36.0117 21.9141 36.0977 22.2891 36.2148C22.6641 36.332 22.9609 36.4414 23.1797 36.543C23.3984 36.6367 23.668 36.7695 23.9883 36.9414C24.3086 37.1055 24.5625 37.2734 24.75 37.4453C24.9453 37.6094 25.1523 37.8164 25.3711 38.0664C25.5977 38.3164 25.7695 38.5781 25.8867 38.8516C26.0039 39.125 26.1016 39.4414 26.1797 39.8008C26.2656 40.1602 26.3086 40.543 26.3086 40.9492C26.3086 41.832 26.1406 42.6211 25.8047 43.3164C25.4688 44.0117 25.0078 44.5781 24.4219 45.0156C23.8438 45.4453 23.1719 45.7734 22.4062 46C21.6484 46.2188 20.8281 46.3281 19.9453 46.3281ZM35.1562 42.8828H36.75V46H34.2656C32.8438 46 31.7188 45.5898 30.8906 44.7695C30.0703 43.9414 29.6602 42.8086 29.6602 41.3711V35.8516H27.3164V35.1016L32.4375 29.6523H33.1055V33.0391H36.6797V35.8516H33.1641V40.9023C33.1641 41.5352 33.3359 42.0234 33.6797 42.3672C34.0234 42.7109 34.5156 42.8828 35.1562 42.8828ZM45.1758 46.3633C43.8555 46.3633 42.6602 46.0664 41.5898 45.4727C40.5195 44.8789 39.6797 44.0586 39.0703 43.0117C38.4688 41.9648 38.168 40.8008 38.168 39.5195C38.168 38.2227 38.4688 37.0547 39.0703 36.0156C39.6797 34.9688 40.5195 34.1523 41.5898 33.5664C42.6602 32.9727 43.8555 32.6758 45.1758 32.6758C46.4883 32.6758 47.6797 32.9727 48.75 33.5664C49.8203 34.1523 50.6602 34.9688 51.2695 36.0156C51.8789 37.0625 52.1836 38.2305 52.1836 39.5195C52.1836 40.8008 51.8789 41.9648 51.2695 43.0117C50.6602 44.0586 49.8203 44.8789 48.75 45.4727C47.6797 46.0664 46.4883 46.3633 45.1758 46.3633ZM42.6914 42.0859C43.3398 42.7422 44.168 43.0703 45.1758 43.0703C46.1836 43.0703 47.0117 42.7422 47.6602 42.0859C48.3086 41.4219 48.6328 40.5664 48.6328 39.5195C48.6328 38.4727 48.3086 37.6211 47.6602 36.9648C47.0117 36.3008 46.1836 35.9688 45.1758 35.9688C44.168 35.9688 43.3398 36.3008 42.6914 36.9648C42.043 37.6211 41.7188 38.4727 41.7188 39.5195C41.7188 40.5664 42.043 41.4219 42.6914 42.0859ZM61.3242 32.9688H62.4727V36.2734H60.9609C59.9766 36.2734 59.2695 36.5078 58.8398 36.9766C58.418 37.4375 58.207 38.1992 58.207 39.2617V46H54.7031V33.0391H56.9414L57.5625 34.6328C58.4531 33.5234 59.707 32.9688 61.3242 32.9688ZM76.7461 39.4727C76.7461 39.8242 76.7227 40.168 76.6758 40.5039H66.8672C67.0156 41.3867 67.3672 42.0664 67.9219 42.543C68.4844 43.0117 69.1914 43.2461 70.043 43.2461C70.6445 43.2461 71.1836 43.1133 71.6602 42.8477C72.1445 42.582 72.5195 42.2148 72.7852 41.7461H76.4648C75.9961 43.1602 75.1836 44.2852 74.0273 45.1211C72.8711 45.9492 71.543 46.3633 70.043 46.3633C68.7852 46.3633 67.6406 46.0664 66.6094 45.4727C65.5859 44.8711 64.7812 44.0469 64.1953 43C63.6094 41.9531 63.3164 40.793 63.3164 39.5195C63.3164 38.2383 63.6055 37.0742 64.1836 36.0273C64.7695 34.9805 65.5742 34.1602 66.5977 33.5664C67.6289 32.9727 68.7773 32.6758 70.043 32.6758C71.3398 32.6758 72.5039 32.9844 73.5352 33.6016C74.5664 34.2109 75.3594 35.0312 75.9141 36.0625C76.4688 37.0938 76.7461 38.2305 76.7461 39.4727ZM70.043 35.6641C69.2695 35.6641 68.6133 35.8789 68.0742 36.3086C67.5352 36.7383 67.1641 37.3398 66.9609 38.1133H73.2422C73 37.3242 72.6016 36.7188 72.0469 36.2969C71.5 35.875 70.832 35.6641 70.043 35.6641Z" fill="#101010"/>
</svg>
